<svg width="18" height="18" viewBox="0 0 18 18" fill="none" xmlns="http://www.w3.org/2000/svg">
<path d="M5.24969 15.75L6.74969 12.75M9.74969 15.75V12.75L7.49969 10.5L8.24969 6L10.4997 9L12.7497 10.5M8.24969 3C8.24969 3.19891 8.32871 3.38968 8.46936 3.53033C8.61002 3.67098 8.80078 3.75 8.99969 3.75C9.19861 3.75 9.38937 3.67098 9.53002 3.53033C9.67068 3.38968 9.74969 3.19891 9.74969 3C9.74969 2.80109 9.67068 2.61032 9.53002 2.46967C9.38937 2.32902 9.19861 2.25 8.99969 2.25C8.80078 2.25 8.61002 2.32902 8.46936 2.46967C8.32871 2.61032 8.24969 2.80109 8.24969 3Z" stroke="#FF6A00" stroke-width="1.66667" stroke-linecap="round" stroke-linejoin="round"/>
<path d="M7.49992 10.5006L6.12968 9.58711C5.87212 9.41547 5.67397 9.16837 5.56239 8.87968C5.45081 8.59099 5.43126 8.27485 5.50642 7.97461L5.71642 7.13686C5.79751 6.81248 5.98465 6.52448 6.24813 6.31862C6.5116 6.11276 6.83631 6.00083 7.17067 6.00061H8.24992L11.2499 6.75061L13.4999 5.25061M12.7499 9.00061V15.7506M11.9999 15.0006H13.4999" stroke="#FF6A00" stroke-width="1.66667" stroke-linecap="round" stroke-linejoin="round"/>
</svg>
