<svg width="22" height="22" viewBox="0 0 22 22" fill="none" xmlns="http://www.w3.org/2000/svg">
<path d="M1.83332 19.25V16.5C1.83332 16.3014 1.86387 16.1104 1.92498 15.9271C1.98609 15.7438 2.07776 15.5681 2.19998 15.4L9.85415 5.08752L8.79998 3.66669C8.72359 3.55974 8.67012 3.44913 8.63957 3.33485C8.60901 3.22058 8.60137 3.10599 8.61665 2.9911C8.63193 2.87622 8.67012 2.7653 8.73123 2.65836C8.79234 2.55141 8.87637 2.45974 8.98332 2.38335C9.1972 2.23058 9.42637 2.16947 9.67082 2.20002C9.91526 2.23058 10.1139 2.3528 10.2666 2.56669L11 3.5521L11.7333 2.56669C11.8861 2.3528 12.0847 2.23058 12.3291 2.20002C12.5736 2.16947 12.8028 2.23058 13.0166 2.38335C13.2305 2.53613 13.3528 2.73474 13.3833 2.97919C13.4139 3.22363 13.3528 3.4528 13.2 3.66669L12.1458 5.08752L19.8 15.4C19.9222 15.5681 20.0139 15.7438 20.075 15.9271C20.1361 16.1104 20.1666 16.3014 20.1666 16.5V19.25C20.1666 19.5097 20.079 19.7276 19.9036 19.9036C19.7282 20.0796 19.5103 20.1673 19.25 20.1667H2.74998C2.49026 20.1667 2.2724 20.0787 2.0964 19.9027C1.9204 19.7267 1.83271 19.5091 1.83332 19.25ZM11 6.62294L3.66665 16.5V18.3334H6.41665L10.2437 12.9709C10.4271 12.7111 10.6791 12.5813 11 12.5813C11.3208 12.5813 11.5729 12.7111 11.7562 12.9709L15.5833 18.3334H18.3333V16.5L11 6.62294ZM8.66248 18.3334H13.3375L11 15.0792L8.66248 18.3334Z" fill="white"/>
</svg>
