<svg width="22" height="22" viewBox="0 0 22 22" fill="none" xmlns="http://www.w3.org/2000/svg">
<path d="M7.22012 13.4049C7.35537 13.4049 7.48929 13.3782 7.61424 13.3265C7.73919 13.2747 7.85272 13.1989 7.94836 13.1032C8.04399 13.0076 8.11985 12.8941 8.17161 12.7691C8.22336 12.6442 8.25 12.5102 8.25 12.375C8.25 12.2398 8.22336 12.1058 8.17161 11.9809C8.11985 11.8559 8.04399 11.7424 7.94836 11.6468C7.85272 11.5511 7.73919 11.4753 7.61424 11.4235C7.48929 11.3718 7.35537 11.3451 7.22012 11.3451C6.94699 11.3451 6.68503 11.4536 6.49189 11.6468C6.29875 11.8399 6.19025 12.1019 6.19025 12.375C6.19025 12.6481 6.29875 12.9101 6.49189 13.1032C6.68503 13.2964 6.94699 13.4049 7.22012 13.4049ZM15.8098 12.3736C15.8099 12.6468 15.7016 12.9088 15.5086 13.1021C15.3156 13.2953 15.0537 13.404 14.7806 13.4042C14.5074 13.4044 14.2454 13.296 14.0521 13.103C13.8589 12.91 13.7502 12.6481 13.75 12.375C13.75 12.1019 13.8585 11.8399 14.0516 11.6468C14.2448 11.4536 14.5067 11.3451 14.7799 11.3451C15.053 11.3451 15.315 11.4536 15.5081 11.6468C15.7012 11.8399 15.8098 12.1019 15.8098 12.375V12.3736ZM8.9375 1.375C8.75516 1.375 8.5803 1.44743 8.45136 1.57636C8.32243 1.7053 8.25 1.88016 8.25 2.0625V2.75H7.31362C6.64514 2.74985 5.99949 2.9932 5.4974 3.43455C4.99532 3.87589 4.67119 4.48501 4.58563 5.148L4.36288 6.875H3.4375C3.25516 6.875 3.0803 6.94743 2.95136 7.07636C2.82243 7.2053 2.75 7.38016 2.75 7.5625C2.75 7.74484 2.82243 7.9197 2.95136 8.04864C3.0803 8.17757 3.25516 8.25 3.4375 8.25H4.1855L4.17175 8.35175C3.75828 8.48689 3.39812 8.7493 3.14276 9.10146C2.88741 9.45362 2.74994 9.8775 2.75 10.3125V14.4375C2.75 14.9845 2.9673 15.5091 3.35409 15.8959C3.74089 16.2827 4.26549 16.5 4.8125 16.5V18.2188C4.8125 18.4923 4.92115 18.7546 5.11455 18.948C5.30794 19.1413 5.57025 19.25 5.84375 19.25C6.11725 19.25 6.37956 19.1413 6.57295 18.948C6.76635 18.7546 6.875 18.4923 6.875 18.2188V16.5H15.1209V18.2188C15.1209 18.4923 15.2295 18.7546 15.4229 18.948C15.6163 19.1413 15.8786 19.25 16.1521 19.25C16.4256 19.25 16.6879 19.1413 16.8813 18.948C17.0747 18.7546 17.1834 18.4923 17.1834 18.2188V16.5H17.1875C17.7345 16.5 18.2591 16.2827 18.6459 15.8959C19.0327 15.5091 19.25 14.9845 19.25 14.4375V10.3125C19.2501 9.87601 19.1117 9.45074 18.8547 9.09791C18.5977 8.74507 18.2355 8.48286 17.82 8.349L17.8076 8.25H18.5625C18.7448 8.25 18.9197 8.17757 19.0486 8.04864C19.1776 7.9197 19.25 7.74484 19.25 7.5625C19.25 7.38016 19.1776 7.2053 19.0486 7.07636C18.9197 6.94743 18.7448 6.875 18.5625 6.875H17.6316L17.4116 5.15212C17.327 4.48862 17.0035 3.87871 16.5016 3.43655C15.9997 2.99439 15.3539 2.75031 14.685 2.75H13.75V2.0625C13.75 1.88016 13.6776 1.7053 13.5486 1.57636C13.4197 1.44743 13.2448 1.375 13.0625 1.375H8.9375ZM5.5715 8.25L5.94963 5.324C5.99241 4.99251 6.15447 4.68795 6.40551 4.46727C6.65656 4.2466 6.97938 4.12492 7.31362 4.125H14.6836C15.0181 4.12497 15.3411 4.24684 15.5921 4.46779C15.8432 4.68874 16.0051 4.99363 16.0476 5.32537L16.4216 8.25H5.5715ZM17.875 14.4375C17.875 14.6198 17.8026 14.7947 17.6736 14.9236C17.5447 15.0526 17.3698 15.125 17.1875 15.125H4.8125C4.63016 15.125 4.4553 15.0526 4.32636 14.9236C4.19743 14.7947 4.125 14.6198 4.125 14.4375V10.3125C4.125 10.1302 4.19743 9.9553 4.32636 9.82636C4.4553 9.69743 4.63016 9.625 4.8125 9.625H17.1875C17.3698 9.625 17.5447 9.69743 17.6736 9.82636C17.8026 9.9553 17.875 10.1302 17.875 10.3125V14.4375Z" fill="white"/>
</svg>
