<svg width="20" height="20" viewBox="0 0 20 20" fill="none" xmlns="http://www.w3.org/2000/svg">
<path d="M15.8333 17.5001L17.2458 13.6147C17.3157 13.4226 17.3125 13.2115 17.237 13.0216C17.1614 12.8317 17.0186 12.6762 16.8358 12.5847L10.3725 9.35302C10.2568 9.29523 10.1293 9.26514 10 9.26514C9.8707 9.26514 9.74317 9.29523 9.6275 9.35302L3.16417 12.5847C2.98133 12.6761 2.83848 12.8316 2.76281 13.0215C2.68713 13.2114 2.68391 13.4226 2.75375 13.6147L4.16667 17.5001" stroke="white" stroke-width="1.66667" stroke-linejoin="round"/>
<path d="M12.0833 5.83341V2.50008C12.0833 2.27907 11.9955 2.06711 11.8392 1.91083C11.6829 1.75455 11.4709 1.66675 11.2499 1.66675H8.74992C8.5289 1.66675 8.31694 1.75455 8.16066 1.91083C8.00438 2.06711 7.91659 2.27907 7.91659 2.50008V5.83341M14.5833 5.83341H5.41659C5.19557 5.83341 4.98361 5.92121 4.82733 6.07749C4.67105 6.23377 4.58325 6.44573 4.58325 6.66675V11.6667L9.65075 9.328C9.76022 9.27748 9.87935 9.25132 9.99992 9.25132C10.1205 9.25132 10.2396 9.27748 10.3491 9.328L15.4166 11.6667V6.66675C15.4166 6.44573 15.3288 6.23377 15.1725 6.07749C15.0162 5.92121 14.8043 5.83341 14.5833 5.83341Z" stroke="white" stroke-width="1.66667" stroke-linecap="round" stroke-linejoin="round"/>
<path d="M10 13.3335V16.6668" stroke="white" stroke-width="1.66667" stroke-linecap="round"/>
<path d="M1.66663 18.3333C3.33329 18.3333 3.33329 17.5 4.58329 17.5C5.83329 17.5 5.83329 18.3333 7.08329 18.3333C8.33329 18.3333 8.54163 17.5 9.99996 17.5C11.4583 17.5 11.6666 18.3333 12.9166 18.3333C14.1666 18.3333 14.1666 17.5 15.4166 17.5C16.6666 17.5 16.6666 18.3333 18.3333 18.3333" stroke="white" stroke-width="1.66667" stroke-linecap="round" stroke-linejoin="round"/>
</svg>
