<svg width="18" height="18" viewBox="0 0 18 18" fill="none" xmlns="http://www.w3.org/2000/svg">
<path d="M13.4997 1.49939H4.49969C4.10187 1.49939 3.72034 1.65742 3.43903 1.93873C3.15773 2.22003 2.99969 2.60156 2.99969 2.99939V14.9994C2.99969 15.3972 3.15773 15.7787 3.43903 16.06C3.72034 16.3414 4.10187 16.4994 4.49969 16.4994H13.4997C13.8975 16.4994 14.2791 16.3414 14.5604 16.06C14.8417 15.7787 14.9997 15.3972 14.9997 14.9994V2.99939C14.9997 2.60156 14.8417 2.22003 14.5604 1.93873C14.2791 1.65742 13.8975 1.49939 13.4997 1.49939Z" stroke="#FF6A00" stroke-width="1.66667" stroke-linecap="round" stroke-linejoin="round"/>
<path d="M6.74939 11.9988L7.01039 11.8188C8.10914 11.059 9.89039 11.059 10.9884 11.8188L11.2494 11.9988M5.99939 5.24878H6.00689M11.9994 5.24878H12.0069M8.99939 5.24878H9.00689M8.99939 8.24878H9.00689M11.9994 8.24878H12.0069M5.99939 8.24878H6.00689M7.49939 16.4988V11.6238M10.4994 11.6238V16.4988" stroke="#FF6A00" stroke-width="1.66667" stroke-linecap="round" stroke-linejoin="round"/>
</svg>
