<svg width="24" height="24" viewBox="0 0 24 24" fill="none" xmlns="http://www.w3.org/2000/svg">
<path d="M2 19C1.71667 19 1.479 18.904 1.287 18.712C1.095 18.52 0.999337 18.2827 1 18V5C1 4.71667 1.096 4.479 1.288 4.287C1.48 4.095 1.71734 3.99934 2 4C2.28334 4 2.521 4.096 2.713 4.288C2.905 4.48 3.00067 4.71734 3 5V14H11V8C11 7.45 11.196 6.979 11.588 6.587C11.98 6.195 12.4507 5.99934 13 6H19C20.1 6 21.0417 6.39167 21.825 7.175C22.6083 7.95834 23 8.9 23 10V18C23 18.2833 22.904 18.521 22.712 18.713C22.52 18.905 22.2827 19.0007 22 19C21.7167 19 21.479 18.904 21.287 18.712C21.095 18.52 20.9993 18.2827 21 18V16H3V18C3 18.2833 2.904 18.521 2.712 18.713C2.52 18.905 2.28267 19.0007 2 19ZM7 13C6.16667 13 5.45834 12.7083 4.875 12.125C4.29167 11.5417 4 10.8333 4 10C4 9.16667 4.29167 8.45834 4.875 7.875C5.45834 7.29167 6.16667 7 7 7C7.83334 7 8.54167 7.29167 9.125 7.875C9.70834 8.45834 10 9.16667 10 10C10 10.8333 9.70834 11.5417 9.125 12.125C8.54167 12.7083 7.83334 13 7 13ZM13 14H21V10C21 9.45 20.804 8.979 20.412 8.587C20.02 8.195 19.5493 7.99934 19 8H13V14ZM7 11C7.28334 11 7.521 10.904 7.713 10.712C7.905 10.52 8.00067 10.2827 8 10C8 9.71667 7.904 9.479 7.712 9.287C7.52 9.095 7.28267 8.99934 7 9C6.71667 9 6.479 9.096 6.287 9.288C6.095 9.48 5.99934 9.71734 6 10C6 10.2833 6.096 10.521 6.288 10.713C6.48 10.905 6.71734 11.0007 7 11Z" fill="white"/>
</svg>
