<svg width="14" height="17" viewBox="0 0 14 17" fill="none" xmlns="http://www.w3.org/2000/svg">
<path d="M11.3333 0.833313H2.33334C1.93552 0.833313 1.55399 0.991348 1.27268 1.27265C0.991379 1.55396 0.833344 1.93549 0.833344 2.33331V14.3333C0.833344 14.7311 0.991379 15.1127 1.27268 15.394C1.55399 15.6753 1.93552 15.8333 2.33334 15.8333H11.3333C11.7312 15.8333 12.1127 15.6753 12.394 15.394C12.6753 15.1127 12.8333 14.7311 12.8333 14.3333V2.33331C12.8333 1.93549 12.6753 1.55396 12.394 1.27265C12.1127 0.991348 11.7312 0.833313 11.3333 0.833313Z" stroke="#FF6A00" stroke-width="1.66667" stroke-linecap="round" stroke-linejoin="round"/>
<path d="M4.58304 11.3327L4.84404 11.1527C5.94279 10.393 7.72404 10.393 8.82204 11.1527L9.08304 11.3327M3.83304 4.5827H3.84054M9.83304 4.5827H9.84054M6.83304 4.5827H6.84054M6.83304 7.5827H6.84054M9.83304 7.5827H9.84054M3.83304 7.5827H3.84054M5.33304 15.8327V10.9577M8.33304 10.9577V15.8327" stroke="#FF6A00" stroke-width="1.66667" stroke-linecap="round" stroke-linejoin="round"/>
</svg>
