<svg width="20" height="20" viewBox="0 0 20 20" fill="none" xmlns="http://www.w3.org/2000/svg">
<path d="M8.5 10.938V12.381C8.5 12.6536 8.596 12.8822 8.788 13.0669C8.98 13.2516 9.21733 13.3437 9.5 13.343H10.5C10.7833 13.343 11.021 13.2507 11.213 13.066C11.405 12.8813 11.5007 12.6529 11.5 12.381V10.938H13C13.2833 10.938 13.521 10.8456 13.713 10.6609C13.905 10.4762 14.0007 10.2479 14 9.97595V9.01392C14 8.74135 13.904 8.51303 13.712 8.32896C13.52 8.1449 13.2827 8.05254 13 8.0519H11.5V6.60886C11.5 6.33629 11.404 6.10797 11.212 5.9239C11.02 5.73983 10.7827 5.64748 10.5 5.64684H9.5C9.21667 5.64684 8.97933 5.73919 8.788 5.9239C8.59667 6.10861 8.50067 6.33693 8.5 6.60886V8.0519H7C6.71667 8.0519 6.47933 8.14425 6.288 8.32896C6.09667 8.51367 6.00067 8.74199 6 9.01392V9.97595C6 10.2485 6.096 10.4772 6.288 10.6619C6.48 10.8466 6.71733 10.9386 7 10.938H8.5ZM10 19.5C9.88333 19.5 9.775 19.492 9.675 19.476C9.575 19.4599 9.475 19.4359 9.375 19.4038C7.125 18.6823 5.33333 17.3473 4 15.3989C2.66667 13.4505 2 11.3542 2 9.11013V4.56456C2 4.16371 2.121 3.80295 2.363 3.48228C2.605 3.1616 2.91733 2.92911 3.3 2.78481L9.3 0.620253C9.53333 0.540084 9.76667 0.5 10 0.5C10.2333 0.5 10.4667 0.540084 10.7 0.620253L16.7 2.78481C17.0833 2.92911 17.396 3.1616 17.638 3.48228C17.88 3.80295 18.0007 4.16371 18 4.56456V9.11013C18 11.3549 17.3333 13.4514 16 15.3998C14.6667 17.3483 12.875 18.6829 10.625 19.4038C10.525 19.4359 10.425 19.4599 10.325 19.476C10.225 19.492 10.1167 19.5 10 19.5ZM10 17.576C11.7333 17.0468 13.1667 15.9886 14.3 14.4013C15.4333 12.8139 16 11.0502 16 9.11013V4.56456L10 2.4L4 4.56456V9.11013C4 11.0502 4.56667 12.8139 5.7 14.4013C6.83333 15.9886 8.26667 17.0468 10 17.576Z" fill="white"/>
</svg>
