<svg width="32" height="32" viewBox="0 0 32 32" fill="none" xmlns="http://www.w3.org/2000/svg">
<path d="M7.99935 9.33325H14.666C15.0196 9.33325 15.3588 9.47373 15.6088 9.72378C15.8589 9.97382 15.9993 10.313 15.9993 10.6666C15.9993 11.0202 15.8589 11.3593 15.6088 11.6094C15.3588 11.8594 15.0196 11.9999 14.666 11.9999H7.99935C7.64573 11.9999 7.30659 11.8594 7.05654 11.6094C6.80649 11.3593 6.66602 11.0202 6.66602 10.6666C6.66602 10.313 6.80649 9.97382 7.05654 9.72378C7.30659 9.47373 7.64573 9.33325 7.99935 9.33325ZM17.3327 19.9999H23.9993C24.353 19.9999 24.6921 20.1404 24.9422 20.3904C25.1922 20.6405 25.3327 20.9796 25.3327 21.3333C25.3327 21.6869 25.1922 22.026 24.9422 22.2761C24.6921 22.5261 24.353 22.6666 23.9993 22.6666H17.3327C16.9791 22.6666 16.6399 22.5261 16.3899 22.2761C16.1398 22.026 15.9993 21.6869 15.9993 21.3333C15.9993 20.9796 16.1398 20.6405 16.3899 20.3904C16.6399 20.1404 16.9791 19.9999 17.3327 19.9999ZM7.99935 14.6666H23.9993C24.353 14.6666 24.6921 14.8071 24.9422 15.0571C25.1922 15.3072 25.3327 15.6463 25.3327 15.9999C25.3327 16.3535 25.1922 16.6927 24.9422 16.9427C24.6921 17.1928 24.353 17.3333 23.9993 17.3333H7.99935C7.64573 17.3333 7.30659 17.1928 7.05654 16.9427C6.80649 16.6927 6.66602 16.3535 6.66602 15.9999C6.66602 15.6463 6.80649 15.3072 7.05654 15.0571C7.30659 14.8071 7.64573 14.6666 7.99935 14.6666Z" fill="white"/>
</svg>
