<svg width="18" height="21" viewBox="0 0 18 21" fill="none" xmlns="http://www.w3.org/2000/svg">
<path d="M9.7875 0.211289L17.2125 4.49709C17.6994 4.77879 18 5.29809 18 5.86059V14.4331C18.0001 14.7096 17.9273 14.9813 17.7891 15.2208C17.6509 15.4603 17.452 15.6592 17.2125 15.7975L9.7875 20.0833C9.54813 20.2217 9.27651 20.2946 9 20.2946C8.72349 20.2946 8.45187 20.2217 8.2125 20.0833L0.7875 15.7966C0.548142 15.6584 0.349363 15.4596 0.211133 15.2203C0.0729017 14.981 8.59968e-05 14.7095 0 14.4331V5.86059C0 5.29809 0.3006 4.77879 0.7875 4.49709L8.2125 0.211289C8.45187 0.0728773 8.72349 0 9 0C9.27651 0 9.54813 0.0728773 9.7875 0.211289ZM8.8875 1.37949L2.025 5.34129L9 9.36789L15.975 5.34129L9.1125 1.37949C9.07836 1.35956 9.03953 1.34906 9 1.34906C8.96047 1.34906 8.92164 1.35956 8.8875 1.37949ZM9.675 18.5902L16.5375 14.6284C16.5716 14.6087 16.6 14.5803 16.6197 14.5462C16.6395 14.5121 16.6499 14.4734 16.65 14.434V6.51039L9.675 10.537V18.5902ZM1.35 6.51129V14.434C1.35 14.515 1.3932 14.5888 1.4625 14.6284L8.325 18.5902V10.5379L1.35 6.51129Z" fill="#29383E"/>
</svg>
