<svg width="72" height="72" viewBox="0 0 72 72" fill="none" xmlns="http://www.w3.org/2000/svg">
<circle cx="36" cy="36" r="36" fill="white"/>
<circle cx="35.9987" cy="36.0002" r="33.0612" fill="#FF6A00"/>
<path d="M36.0003 51.1784C31.9274 47.7127 28.8856 44.4938 26.8749 41.5218C24.8643 38.5499 23.8584 35.7985 23.8574 33.2677C23.8574 29.4731 25.0783 26.45 27.52 24.1985C29.9617 21.947 32.7885 20.8213 36.0003 20.8213C39.2131 20.8213 42.0403 21.947 44.4821 24.1985C46.9238 26.45 48.1441 29.4731 48.1431 33.2677L51.3306 30.0802L53.4556 32.2052L46.6253 39.0356L39.7949 32.2052L41.9199 30.0802L45.1074 33.2677C45.1074 30.5103 44.2281 28.2527 42.4694 26.495C40.7107 24.7374 38.5543 23.858 36.0003 23.857C33.4452 23.857 31.2883 24.7363 29.5297 26.495C27.771 28.2537 26.8921 30.5113 26.8931 33.2677C26.8931 35.0638 27.6394 37.1195 29.132 39.4348C30.6245 41.75 32.914 44.3238 36.0003 47.1561C36.5062 46.7008 36.9742 46.258 37.4043 45.828L38.6945 44.5378C38.568 44.2848 38.4668 44.0131 38.3909 43.7227C38.315 43.4323 38.2771 43.1348 38.2771 42.8302C38.2771 41.7677 38.6439 40.8696 39.3775 40.136C40.1111 39.4024 41.0092 39.0356 42.0717 39.0356C43.1342 39.0356 44.0323 39.4024 44.7659 40.136C45.4995 40.8696 45.8663 41.7677 45.8663 42.8302C45.8663 43.8927 45.4995 44.7908 44.7659 45.5244C44.0323 46.258 43.1342 46.6249 42.0717 46.6249C41.8693 46.6249 41.6857 46.6122 41.5207 46.5869C41.3558 46.5616 41.1853 46.5237 41.0092 46.4731C40.2756 47.232 39.4974 48.0036 38.6747 48.7878C37.8521 49.572 36.9606 50.3689 36.0003 51.1784Z" fill="white"/>
</svg>
