<svg width="20" height="20" viewBox="0 0 20 20" fill="none" xmlns="http://www.w3.org/2000/svg">
<path d="M3.33333 7.49997H14.1667L12.8333 8.49997C12.7458 8.56563 12.672 8.6479 12.6163 8.74206C12.5605 8.83623 12.5239 8.94045 12.5084 9.04879C12.4929 9.15712 12.4989 9.26745 12.5261 9.37346C12.5532 9.47947 12.601 9.57909 12.6667 9.66664C12.7443 9.77014 12.8449 9.85414 12.9607 9.912C13.0764 9.96985 13.204 9.99997 13.3333 9.99997C13.5136 9.99997 13.6891 9.94149 13.8333 9.83331L17.1667 7.33331C17.2686 7.25554 17.3512 7.1553 17.4081 7.04039C17.4649 6.92549 17.4945 6.79901 17.4945 6.67081C17.4945 6.5426 17.4649 6.41613 17.4081 6.30122C17.3512 6.18632 17.2686 6.08608 17.1667 6.00831L13.95 3.50831C13.7754 3.37238 13.554 3.31139 13.3344 3.33874C13.1148 3.36609 12.9151 3.47954 12.7792 3.65414C12.6432 3.82874 12.5822 4.05019 12.6096 4.26976C12.6369 4.48933 12.7504 4.68905 12.925 4.82497L14.2333 5.83331H3.33333C3.11232 5.83331 2.90036 5.92111 2.74408 6.07739C2.5878 6.23367 2.5 6.44563 2.5 6.66664C2.5 6.88765 2.5878 7.09962 2.74408 7.2559C2.90036 7.41218 3.11232 7.49997 3.33333 7.49997ZM16.6667 13.3333H5.83333L7.16667 12.3333C7.34348 12.2007 7.46037 12.0033 7.49162 11.7845C7.52288 11.5657 7.46594 11.3435 7.33333 11.1666C7.20073 10.9898 7.00331 10.8729 6.78452 10.8417C6.56573 10.8104 6.34348 10.8674 6.16667 11L2.83333 13.5C2.73141 13.5777 2.64881 13.678 2.59195 13.7929C2.53509 13.9078 2.50551 14.0343 2.50551 14.1625C2.50551 14.2907 2.53509 14.4172 2.59195 14.5321C2.64881 14.647 2.73141 14.7472 2.83333 14.825L6.05 17.325C6.19546 17.4379 6.37421 17.4994 6.55833 17.5C6.6856 17.4997 6.8111 17.4702 6.92522 17.4139C7.03934 17.3575 7.13903 17.2758 7.21667 17.175C7.35199 17.0012 7.41306 16.781 7.38651 16.5624C7.35997 16.3438 7.24797 16.1446 7.075 16.0083L5.76667 15H16.6667C16.8877 15 17.0996 14.9122 17.2559 14.7559C17.4122 14.5996 17.5 14.3877 17.5 14.1666C17.5 13.9456 17.4122 13.7337 17.2559 13.5774C17.0996 13.4211 16.8877 13.3333 16.6667 13.3333Z" fill="#FF6A00"/>
</svg>
