<svg width="20" height="20" viewBox="0 0 20 20" fill="none" xmlns="http://www.w3.org/2000/svg">
<path d="M7.08331 13.3333C7.77367 13.3333 8.33331 12.7736 8.33331 12.0833C8.33331 11.3929 7.77367 10.8333 7.08331 10.8333C6.39296 10.8333 5.83331 11.3929 5.83331 12.0833C5.83331 12.7736 6.39296 13.3333 7.08331 13.3333Z" fill="white"/>
<path d="M12.9167 13.3333C13.607 13.3333 14.1667 12.7736 14.1667 12.0833C14.1667 11.3929 13.607 10.8333 12.9167 10.8333C12.2263 10.8333 11.6667 11.3929 11.6667 12.0833C11.6667 12.7736 12.2263 13.3333 12.9167 13.3333Z" fill="white"/>
<path d="M9.99998 1.66675C6.66665 1.66675 3.33331 2.08341 3.33331 5.00008V12.9167C3.33331 14.5251 4.64165 15.8334 6.24998 15.8334L4.99998 17.0834V17.5001H6.66665L8.33331 15.8334H11.6666L13.3333 17.5001H15V17.0834L13.75 15.8334C15.3583 15.8334 16.6666 14.5251 16.6666 12.9167V5.00008C16.6666 2.08341 13.3333 1.66675 9.99998 1.66675ZM9.99998 3.33341C12.925 3.33341 14.1333 3.73341 14.6416 4.16675H5.35831C5.86665 3.73341 7.07498 3.33341 9.99998 3.33341ZM4.99998 5.83341H9.16665V8.33341H4.99998V5.83341ZM15 12.9167C15 13.6084 14.4416 14.1667 13.75 14.1667H6.24998C5.55831 14.1667 4.99998 13.6084 4.99998 12.9167V10.0001H15V12.9167ZM15 8.33341H10.8333V5.83341H15V8.33341Z" fill="white"/>
</svg>
