<svg width="14" height="14" viewBox="0 0 14 14" fill="none" xmlns="http://www.w3.org/2000/svg">
<path d="M1.5 6L2.625 2.625H10.875L12 6M10.875 9.75C10.5766 9.75 10.2905 9.63147 10.0795 9.4205C9.86853 9.20952 9.75 8.92337 9.75 8.625C9.75 8.32663 9.86853 8.04048 10.0795 7.8295C10.2905 7.61853 10.5766 7.5 10.875 7.5C11.1734 7.5 11.4595 7.61853 11.6705 7.8295C11.8815 8.04048 12 8.32663 12 8.625C12 8.92337 11.8815 9.20952 11.6705 9.4205C11.4595 9.63147 11.1734 9.75 10.875 9.75ZM2.625 9.75C2.32663 9.75 2.04048 9.63147 1.8295 9.4205C1.61853 9.20952 1.5 8.92337 1.5 8.625C1.5 8.32663 1.61853 8.04048 1.8295 7.8295C2.04048 7.61853 2.32663 7.5 2.625 7.5C2.92337 7.5 3.20952 7.61853 3.4205 7.8295C3.63147 8.04048 3.75 8.32663 3.75 8.625C3.75 8.92337 3.63147 9.20952 3.4205 9.4205C3.20952 9.63147 2.92337 9.75 2.625 9.75ZM11.94 2.25C11.79 1.815 11.37 1.5 10.875 1.5H9V0H4.5V1.5H2.625C2.13 1.5 1.71 1.815 1.56 2.25L0 6.75V12.75C0 12.9489 0.0790176 13.1397 0.21967 13.2803C0.360322 13.421 0.551088 13.5 0.75 13.5H1.5C1.69891 13.5 1.88968 13.421 2.03033 13.2803C2.17098 13.1397 2.25 12.9489 2.25 12.75V12H11.25V12.75C11.25 12.9489 11.329 13.1397 11.4697 13.2803C11.6103 13.421 11.8011 13.5 12 13.5H12.75C12.9489 13.5 13.1397 13.421 13.2803 13.2803C13.421 13.1397 13.5 12.9489 13.5 12.75V6.75L11.94 2.25Z" fill="#FF6A00"/>
</svg>
