<svg width="19" height="18" viewBox="0 0 19 18" fill="none" xmlns="http://www.w3.org/2000/svg">
<path fill-rule="evenodd" clip-rule="evenodd" d="M11.234 0.610714C11.234 0.273857 11.5078 0 11.8447 0H14.5421C14.879 0 15.1528 0.273857 15.1528 0.610714V2.862H17.4041C17.741 2.862 18.0148 3.13586 18.0148 3.47271V6.17014C18.0148 6.33211 17.9505 6.48745 17.8359 6.60198C17.7214 6.71651 17.5661 6.78086 17.4041 6.78086H15.1528V9.03214C15.1528 9.19411 15.0885 9.34945 14.9739 9.46398C14.8594 9.57851 14.7041 9.64286 14.5421 9.64286H11.8447C11.6827 9.64286 11.5274 9.57851 11.4128 9.46398C11.2983 9.34945 11.234 9.19411 11.234 9.03214V6.78086H8.98267C8.8207 6.78086 8.66536 6.71651 8.55083 6.60198C8.4363 6.48745 8.37196 6.33211 8.37196 6.17014V3.47271C8.37196 3.13586 8.64582 2.862 8.98267 2.862H11.234V0.610714ZM0.0148158 9.48214C0.0148158 9.03857 0.374816 8.67857 0.818387 8.67857H4.25382C5.14867 8.67857 6.00624 9.03471 6.6401 9.66729L8.13667 11.1639C8.6831 11.7103 8.87724 12.4766 8.71782 13.1786H12.8192C13.2062 13.1784 13.5894 13.2545 13.947 13.4026C14.3045 13.5506 14.6293 13.7677 14.9029 14.0414C15.1765 14.3151 15.3934 14.64 15.5413 14.9976C15.6892 15.3552 15.7652 15.7385 15.7648 16.1254C15.7648 17.1604 14.9252 18 13.8902 18H5.60639C4.81723 17.9995 4.05311 17.7229 3.44639 17.2183L0.304101 14.5993C0.220164 14.5327 0.150394 14.45 0.0988961 14.356C0.0473979 14.262 0.0152117 14.1587 0.00423087 14.0521C-0.00674991 13.9456 0.00369655 13.8379 0.0349557 13.7354C0.0662148 13.6329 0.117655 13.5377 0.186251 13.4554C0.254846 13.373 0.339212 13.3053 0.434383 13.2561C0.529555 13.2068 0.63361 13.1771 0.740429 13.1687C0.847247 13.1603 0.954671 13.1733 1.05638 13.207C1.15809 13.2407 1.25203 13.2944 1.33267 13.365L4.47624 15.9814C4.79382 16.2463 5.19367 16.3916 5.60767 16.3916H13.8915C13.9623 16.3909 14.0299 16.3625 14.0799 16.3125C14.1299 16.2625 14.1583 16.1949 14.159 16.1241C14.159 15.3836 13.5598 14.7844 12.8192 14.7844H7.18139C6.81204 14.8857 6.42249 14.8875 6.0522 14.7898C5.68191 14.692 5.34404 14.4981 5.07282 14.2277L4.10853 13.2634C4.03026 13.1897 3.96757 13.101 3.92418 13.0027C3.8808 12.9043 3.8576 12.7982 3.85595 12.6907C3.85431 12.5832 3.87426 12.4765 3.91461 12.3768C3.95497 12.2771 4.01491 12.1866 4.0909 12.1105C4.16688 12.0345 4.25736 11.9744 4.35697 11.9339C4.45658 11.8935 4.5633 11.8734 4.67081 11.8749C4.77832 11.8765 4.88443 11.8995 4.98285 11.9428C5.08128 11.9861 5.17002 12.0487 5.24382 12.1269L6.2081 13.0911C6.28267 13.1649 6.37627 13.2164 6.47843 13.24C6.5806 13.2636 6.68732 13.2584 6.78667 13.2249L6.79567 13.2223C6.88456 13.1904 6.96394 13.1366 7.02641 13.0658C7.08889 12.995 7.13242 12.9096 7.15296 12.8174C7.17349 12.7253 7.17037 12.6294 7.14386 12.5388C7.11736 12.4482 7.06834 12.3657 7.00139 12.2991L5.50224 10.8039C5.17077 10.4732 4.72202 10.2869 4.25382 10.2857H0.818387C0.605267 10.2857 0.400875 10.2011 0.250176 10.0504C0.0994775 9.89965 0.0148158 9.69526 0.0148158 9.48214Z" fill="white"/>
</svg>
