<svg width="24" height="24" viewBox="0 0 24 24" fill="none" xmlns="http://www.w3.org/2000/svg">
  <rect width="24" height="24" fill="white"/>
  <path d="M9.6 24C6.38 21.26 3.975 18.715 2.385 16.365C0.795 14.015 0.000799999 11.8408 0 9.84C0 6.84 0.965199 4.45 2.8956 2.67C4.826 0.89 7.0608 0 9.6 0C12.14 0 14.3751 0.89 16.3056 2.67C18.236 4.45 19.2008 6.84 19.2 9.84L21.72 7.32L23.4 9L18 14.4L12.6 9L14.28 7.32L16.8 9.84C16.8 7.66 16.1048 5.8752 14.7144 4.4856C13.3239 3.096 11.6192 2.40079 9.6 2.4C7.58 2.4 5.87479 3.09519 4.4844 4.4856C3.09399 5.87599 2.39919 7.6608 2.4 9.84C2.4 11.26 2.99 12.8852 4.17 14.7156C5.35 16.5459 7.16 18.5808 9.6 20.82C10 20.46 10.37 20.11 10.71 19.77L11.73 18.75C11.63 18.55 11.55 18.3351 11.49 18.1056C11.43 17.876 11.4 17.6408 11.4 17.4C11.4 16.56 11.69 15.85 12.27 15.27C12.85 14.69 13.56 14.4 14.4 14.4C15.24 14.4 15.95 14.69 16.53 15.27C17.11 15.85 17.4 16.56 17.4 17.4C17.4 18.24 17.11 18.95 16.53 19.53C15.95 20.11 15.24 20.4 14.4 20.4C14.24 20.4 14.0948 20.39 13.9644 20.37C13.8339 20.35 13.6992 20.32 13.56 20.28C12.98 20.88 12.3648 21.49 11.7144 22.11C11.064 22.73 10.3592 23.36 9.6 24Z" fill="#16242A"/>
</svg>
